<svg xmlns="http://www.w3.org/2000/svg" viewBox="0 0 120 120">
  <defs>
    <linearGradient id="heartGradient" x1="0%" y1="0%" x2="100%" y2="100%">
      <stop offset="0%" style="stop-color:#ff4fd8;stop-opacity:1" />
      <stop offset="100%" style="stop-color:#ff4d6d;stop-opacity:1" />
    </linearGradient>
  </defs>
  
  <!-- Outer heart stroke -->
  <path
    d="M60 104
       C60 104, 18 76, 18 42
       C18 22, 34 10, 50 10
       C67 10, 79 23, 84 33
       C89 23, 101 10, 118 10
       C134 10, 150 22, 150 42
       C150 76, 60 104, 60 104 Z"
    fill="none"
    stroke="rgba(255,255,255,.92)"
    stroke-width="8"
    stroke-linejoin="round"
    stroke-linecap="round"
    transform="translate(-24,0)"
  />
  
  <!-- Inner heart fill -->
  <path
    d="M60 100
       C60 100, 24 74, 24 44
       C24 28, 36 18, 50 18
       C64 18, 74 27, 80 36
       C86 27, 96 18, 110 18
       C124 18, 136 28, 136 44
       C136 74, 60 100, 60 100 Z"
    fill="url(#heartGradient)"
    stroke="rgba(255,77,109,.95)"
    stroke-width="4"
    stroke-linejoin="round"
    stroke-linecap="round"
    transform="translate(-8,0)"
    opacity=".95"
  />
</svg>
